<mxfile host="Electron" agent="Mozilla/5.0 (Windows NT 10.0; Win64; x64) AppleWebKit/537.36 (KHTML, like Gecko) draw.io/24.7.17 Chrome/128.0.6613.36 Electron/32.0.1 Safari/537.36" version="24.7.17">
  <diagram name="Page-1" id="kUmkZNFpxneaxYNT-u2c">
    <mxGraphModel dx="864" dy="516" grid="1" gridSize="10" guides="1" tooltips="1" connect="1" arrows="1" fold="1" page="1" pageScale="1" pageWidth="850" pageHeight="1100" math="0" shadow="0">
      <root>
        <mxCell id="0" />
        <mxCell id="1" parent="0" />
        <mxCell id="hODdMneyu6Mu2sfqf9HO-4" value="Home Caregiver" style="html=1;whiteSpace=wrap;" parent="1" vertex="1">
          <mxGeometry x="90" y="140" width="110" height="50" as="geometry" />
        </mxCell>
        <mxCell id="hODdMneyu6Mu2sfqf9HO-5" value="Health professional&lt;div&gt;(doctor or nurse of a hospital)&lt;/div&gt;" style="html=1;whiteSpace=wrap;" parent="1" vertex="1">
          <mxGeometry x="315" y="140" width="110" height="50" as="geometry" />
        </mxCell>
        <mxCell id="hODdMneyu6Mu2sfqf9HO-6" value="Eldercare guardian app" style="html=1;whiteSpace=wrap;" parent="1" vertex="1">
          <mxGeometry x="540" y="140" width="110" height="50" as="geometry" />
        </mxCell>
        <mxCell id="hODdMneyu6Mu2sfqf9HO-7" value="System administratot" style="html=1;whiteSpace=wrap;" parent="1" vertex="1">
          <mxGeometry x="740" y="140" width="110" height="50" as="geometry" />
        </mxCell>
        <mxCell id="hODdMneyu6Mu2sfqf9HO-8" value="" style="html=1;points=[[0,0,0,0,5],[0,1,0,0,-5],[1,0,0,0,5],[1,1,0,0,-5]];perimeter=orthogonalPerimeter;outlineConnect=0;targetShapes=umlLifeline;portConstraint=eastwest;newEdgeStyle={&quot;curved&quot;:0,&quot;rounded&quot;:0};" parent="1" vertex="1">
          <mxGeometry x="140" y="260" width="10" height="560" as="geometry" />
        </mxCell>
        <mxCell id="hODdMneyu6Mu2sfqf9HO-9" value="" style="html=1;points=[[0,0,0,0,5],[0,1,0,0,-5],[1,0,0,0,5],[1,1,0,0,-5]];perimeter=orthogonalPerimeter;outlineConnect=0;targetShapes=umlLifeline;portConstraint=eastwest;newEdgeStyle={&quot;curved&quot;:0,&quot;rounded&quot;:0};" parent="1" vertex="1">
          <mxGeometry x="370" y="260" width="10" height="330" as="geometry" />
        </mxCell>
        <mxCell id="hODdMneyu6Mu2sfqf9HO-10" value="" style="endArrow=open;endFill=1;endSize=12;html=1;rounded=0;" parent="1" target="hODdMneyu6Mu2sfqf9HO-9" edge="1">
          <mxGeometry width="160" relative="1" as="geometry">
            <mxPoint x="150" y="300" as="sourcePoint" />
            <mxPoint x="310" y="300" as="targetPoint" />
          </mxGeometry>
        </mxCell>
        <mxCell id="hODdMneyu6Mu2sfqf9HO-11" value="login/register" style="text;html=1;align=center;verticalAlign=middle;resizable=0;points=[];autosize=1;strokeColor=none;fillColor=none;" parent="1" vertex="1">
          <mxGeometry x="205" y="278" width="90" height="30" as="geometry" />
        </mxCell>
        <mxCell id="hODdMneyu6Mu2sfqf9HO-12" value="" style="html=1;points=[[0,0,0,0,5],[0,1,0,0,-5],[1,0,0,0,5],[1,1,0,0,-5]];perimeter=orthogonalPerimeter;outlineConnect=0;targetShapes=umlLifeline;portConstraint=eastwest;newEdgeStyle={&quot;curved&quot;:0,&quot;rounded&quot;:0};" parent="1" vertex="1">
          <mxGeometry x="580" y="260" width="10" height="320" as="geometry" />
        </mxCell>
        <mxCell id="hODdMneyu6Mu2sfqf9HO-14" value="validates" style="text;html=1;align=center;verticalAlign=middle;resizable=0;points=[];autosize=1;strokeColor=none;fillColor=none;" parent="1" vertex="1">
          <mxGeometry x="440" y="320" width="70" height="30" as="geometry" />
        </mxCell>
        <mxCell id="hODdMneyu6Mu2sfqf9HO-15" value="" style="endArrow=open;endFill=1;endSize=12;html=1;rounded=0;" parent="1" edge="1">
          <mxGeometry width="160" relative="1" as="geometry">
            <mxPoint x="150" y="400" as="sourcePoint" />
            <mxPoint x="370" y="400" as="targetPoint" />
          </mxGeometry>
        </mxCell>
        <mxCell id="hODdMneyu6Mu2sfqf9HO-16" value="inputs health data" style="text;html=1;align=center;verticalAlign=middle;resizable=0;points=[];autosize=1;strokeColor=none;fillColor=none;" parent="1" vertex="1">
          <mxGeometry x="170" y="368" width="120" height="30" as="geometry" />
        </mxCell>
        <mxCell id="hODdMneyu6Mu2sfqf9HO-17" value="" style="endArrow=open;endFill=1;endSize=12;html=1;rounded=0;" parent="1" target="hODdMneyu6Mu2sfqf9HO-12" edge="1">
          <mxGeometry width="160" relative="1" as="geometry">
            <mxPoint x="380" y="450" as="sourcePoint" />
            <mxPoint x="600" y="450" as="targetPoint" />
          </mxGeometry>
        </mxCell>
        <mxCell id="hODdMneyu6Mu2sfqf9HO-18" value="monitors data" style="text;html=1;align=center;verticalAlign=middle;resizable=0;points=[];autosize=1;strokeColor=none;fillColor=none;" parent="1" vertex="1">
          <mxGeometry x="425" y="428" width="100" height="30" as="geometry" />
        </mxCell>
        <mxCell id="hODdMneyu6Mu2sfqf9HO-20" value="detects abnormalities" style="text;html=1;align=center;verticalAlign=middle;resizable=0;points=[];autosize=1;strokeColor=none;fillColor=none;" parent="1" vertex="1">
          <mxGeometry x="410" y="510" width="140" height="30" as="geometry" />
        </mxCell>
        <mxCell id="hODdMneyu6Mu2sfqf9HO-22" value="" style="html=1;points=[[0,0,0,0,5],[0,1,0,0,-5],[1,0,0,0,5],[1,1,0,0,-5]];perimeter=orthogonalPerimeter;outlineConnect=0;targetShapes=umlLifeline;portConstraint=eastwest;newEdgeStyle={&quot;curved&quot;:0,&quot;rounded&quot;:0};" parent="1" vertex="1">
          <mxGeometry x="370" y="900" width="10" height="150" as="geometry" />
        </mxCell>
        <mxCell id="hODdMneyu6Mu2sfqf9HO-24" value="" style="html=1;verticalAlign=bottom;endArrow=open;dashed=1;endSize=8;curved=0;rounded=0;" parent="1" target="hODdMneyu6Mu2sfqf9HO-8" edge="1">
          <mxGeometry relative="1" as="geometry">
            <mxPoint x="580" y="710" as="sourcePoint" />
            <mxPoint x="500" y="710" as="targetPoint" />
          </mxGeometry>
        </mxCell>
        <mxCell id="hODdMneyu6Mu2sfqf9HO-25" value="" style="html=1;verticalAlign=bottom;endArrow=open;dashed=1;endSize=8;curved=0;rounded=0;" parent="1" edge="1">
          <mxGeometry relative="1" as="geometry">
            <mxPoint x="580" y="350" as="sourcePoint" />
            <mxPoint x="380" y="350" as="targetPoint" />
          </mxGeometry>
        </mxCell>
        <mxCell id="hODdMneyu6Mu2sfqf9HO-26" value="" style="html=1;verticalAlign=bottom;endArrow=open;dashed=1;endSize=8;curved=0;rounded=0;" parent="1" edge="1">
          <mxGeometry relative="1" as="geometry">
            <mxPoint x="580" y="540" as="sourcePoint" />
            <mxPoint x="380" y="540" as="targetPoint" />
          </mxGeometry>
        </mxCell>
        <mxCell id="hODdMneyu6Mu2sfqf9HO-28" value="receives alert" style="text;html=1;align=center;verticalAlign=middle;resizable=0;points=[];autosize=1;strokeColor=none;fillColor=none;" parent="1" vertex="1">
          <mxGeometry x="275" y="680" width="90" height="30" as="geometry" />
        </mxCell>
        <mxCell id="hODdMneyu6Mu2sfqf9HO-29" value="" style="html=1;verticalAlign=bottom;endArrow=open;dashed=1;endSize=8;curved=0;rounded=0;" parent="1" edge="1">
          <mxGeometry relative="1" as="geometry">
            <mxPoint x="580" y="790" as="sourcePoint" />
            <mxPoint x="150" y="790" as="targetPoint" />
          </mxGeometry>
        </mxCell>
        <mxCell id="hODdMneyu6Mu2sfqf9HO-30" value="feedback" style="text;html=1;align=center;verticalAlign=middle;resizable=0;points=[];autosize=1;strokeColor=none;fillColor=none;" parent="1" vertex="1">
          <mxGeometry x="295" y="758" width="70" height="30" as="geometry" />
        </mxCell>
        <mxCell id="hODdMneyu6Mu2sfqf9HO-31" value="" style="html=1;points=[[0,0,0,0,5],[0,1,0,0,-5],[1,0,0,0,5],[1,1,0,0,-5]];perimeter=orthogonalPerimeter;outlineConnect=0;targetShapes=umlLifeline;portConstraint=eastwest;newEdgeStyle={&quot;curved&quot;:0,&quot;rounded&quot;:0};" parent="1" vertex="1">
          <mxGeometry x="580" y="650" width="10" height="410" as="geometry" />
        </mxCell>
        <mxCell id="hODdMneyu6Mu2sfqf9HO-32" value="" style="html=1;verticalAlign=bottom;endArrow=open;dashed=1;endSize=8;curved=0;rounded=0;" parent="1" edge="1">
          <mxGeometry relative="1" as="geometry">
            <mxPoint x="580" y="970" as="sourcePoint" />
            <mxPoint x="380" y="970" as="targetPoint" />
          </mxGeometry>
        </mxCell>
        <mxCell id="hODdMneyu6Mu2sfqf9HO-33" value="creates report" style="text;html=1;align=center;verticalAlign=middle;resizable=0;points=[];autosize=1;strokeColor=none;fillColor=none;" parent="1" vertex="1">
          <mxGeometry x="430" y="940" width="100" height="30" as="geometry" />
        </mxCell>
        <mxCell id="hODdMneyu6Mu2sfqf9HO-34" value="" style="html=1;points=[[0,0,0,0,5],[0,1,0,0,-5],[1,0,0,0,5],[1,1,0,0,-5]];perimeter=orthogonalPerimeter;outlineConnect=0;targetShapes=umlLifeline;portConstraint=eastwest;newEdgeStyle={&quot;curved&quot;:0,&quot;rounded&quot;:0};" parent="1" vertex="1">
          <mxGeometry x="790" y="950" width="10" height="100" as="geometry" />
        </mxCell>
        <mxCell id="hODdMneyu6Mu2sfqf9HO-35" value="" style="endArrow=open;endFill=1;endSize=12;html=1;rounded=0;" parent="1" target="hODdMneyu6Mu2sfqf9HO-34" edge="1">
          <mxGeometry width="160" relative="1" as="geometry">
            <mxPoint x="590" y="1000" as="sourcePoint" />
            <mxPoint x="790" y="1000" as="targetPoint" />
          </mxGeometry>
        </mxCell>
        <mxCell id="hODdMneyu6Mu2sfqf9HO-36" value="" style="html=1;verticalAlign=bottom;endArrow=open;dashed=1;endSize=8;curved=0;rounded=0;" parent="1" source="hODdMneyu6Mu2sfqf9HO-34" edge="1">
          <mxGeometry relative="1" as="geometry">
            <mxPoint x="740" y="1040" as="sourcePoint" />
            <mxPoint x="590" y="1040" as="targetPoint" />
          </mxGeometry>
        </mxCell>
        <mxCell id="hODdMneyu6Mu2sfqf9HO-37" value="manage users" style="text;html=1;align=center;verticalAlign=middle;resizable=0;points=[];autosize=1;strokeColor=none;fillColor=none;" parent="1" vertex="1">
          <mxGeometry x="640" y="978" width="100" height="30" as="geometry" />
        </mxCell>
        <mxCell id="hODdMneyu6Mu2sfqf9HO-38" value="update details" style="text;html=1;align=center;verticalAlign=middle;resizable=0;points=[];autosize=1;strokeColor=none;fillColor=none;" parent="1" vertex="1">
          <mxGeometry x="640" y="1018" width="100" height="30" as="geometry" />
        </mxCell>
        <mxCell id="hODdMneyu6Mu2sfqf9HO-42" value="" style="endArrow=none;dashed=1;html=1;rounded=0;" parent="1" edge="1">
          <mxGeometry width="50" height="50" relative="1" as="geometry">
            <mxPoint x="144.5" y="1090" as="sourcePoint" />
            <mxPoint x="144.5" y="820" as="targetPoint" />
          </mxGeometry>
        </mxCell>
        <mxCell id="hODdMneyu6Mu2sfqf9HO-43" value="" style="endArrow=none;dashed=1;html=1;rounded=0;" parent="1" edge="1">
          <mxGeometry width="50" height="50" relative="1" as="geometry">
            <mxPoint x="375" y="1100" as="sourcePoint" />
            <mxPoint x="375" y="1050" as="targetPoint" />
          </mxGeometry>
        </mxCell>
        <mxCell id="hODdMneyu6Mu2sfqf9HO-44" value="" style="endArrow=none;dashed=1;html=1;rounded=0;" parent="1" edge="1">
          <mxGeometry width="50" height="50" relative="1" as="geometry">
            <mxPoint x="585" y="1100" as="sourcePoint" />
            <mxPoint x="584.5" y="1060" as="targetPoint" />
          </mxGeometry>
        </mxCell>
        <mxCell id="hODdMneyu6Mu2sfqf9HO-45" value="" style="endArrow=none;dashed=1;html=1;rounded=0;" parent="1" edge="1">
          <mxGeometry width="50" height="50" relative="1" as="geometry">
            <mxPoint x="795" y="1100" as="sourcePoint" />
            <mxPoint x="794.5" y="1050" as="targetPoint" />
          </mxGeometry>
        </mxCell>
        <mxCell id="hODdMneyu6Mu2sfqf9HO-46" value="" style="endArrow=none;dashed=1;html=1;rounded=0;entryX=1;entryY=1;entryDx=0;entryDy=-5;entryPerimeter=0;" parent="1" edge="1">
          <mxGeometry width="50" height="50" relative="1" as="geometry">
            <mxPoint x="374.5" y="905" as="sourcePoint" />
            <mxPoint x="374.5" y="590" as="targetPoint" />
          </mxGeometry>
        </mxCell>
        <mxCell id="hODdMneyu6Mu2sfqf9HO-47" value="" style="endArrow=none;dashed=1;html=1;rounded=0;" parent="1" edge="1">
          <mxGeometry width="50" height="50" relative="1" as="geometry">
            <mxPoint x="584.5" y="650" as="sourcePoint" />
            <mxPoint x="584.5" y="580" as="targetPoint" />
          </mxGeometry>
        </mxCell>
        <mxCell id="hODdMneyu6Mu2sfqf9HO-48" value="" style="endArrow=none;dashed=1;html=1;rounded=0;" parent="1" edge="1">
          <mxGeometry width="50" height="50" relative="1" as="geometry">
            <mxPoint x="144.5" y="260" as="sourcePoint" />
            <mxPoint x="144.5" y="190" as="targetPoint" />
          </mxGeometry>
        </mxCell>
        <mxCell id="hODdMneyu6Mu2sfqf9HO-49" value="" style="endArrow=none;dashed=1;html=1;rounded=0;entryX=0.4;entryY=1.04;entryDx=0;entryDy=0;entryPerimeter=0;" parent="1" target="hODdMneyu6Mu2sfqf9HO-6" edge="1">
          <mxGeometry width="50" height="50" relative="1" as="geometry">
            <mxPoint x="584" y="260" as="sourcePoint" />
            <mxPoint x="587" y="193" as="targetPoint" />
          </mxGeometry>
        </mxCell>
        <mxCell id="hODdMneyu6Mu2sfqf9HO-51" value="" style="endArrow=none;dashed=1;html=1;rounded=0;entryX=0.4;entryY=1.04;entryDx=0;entryDy=0;entryPerimeter=0;" parent="1" edge="1">
          <mxGeometry width="50" height="50" relative="1" as="geometry">
            <mxPoint x="374.5" y="258" as="sourcePoint" />
            <mxPoint x="374.5" y="190" as="targetPoint" />
          </mxGeometry>
        </mxCell>
        <mxCell id="hODdMneyu6Mu2sfqf9HO-52" value="" style="endArrow=none;dashed=1;html=1;rounded=0;entryX=0.436;entryY=1.02;entryDx=0;entryDy=0;entryPerimeter=0;" parent="1" edge="1">
          <mxGeometry width="50" height="50" relative="1" as="geometry">
            <mxPoint x="796.02" y="950" as="sourcePoint" />
            <mxPoint x="793.98" y="191" as="targetPoint" />
          </mxGeometry>
        </mxCell>
        <mxCell id="FlUDUet6S5fzJdUaa94e-1" value="&lt;b&gt;&lt;u&gt;&lt;font style=&quot;font-size: 18px;&quot;&gt;SEQUENCE DIAGRAM&lt;/font&gt;&lt;/u&gt;&lt;/b&gt;" style="text;html=1;align=center;verticalAlign=middle;resizable=0;points=[];autosize=1;strokeColor=none;fillColor=none;" vertex="1" parent="1">
          <mxGeometry x="330" y="33" width="220" height="40" as="geometry" />
        </mxCell>
      </root>
    </mxGraphModel>
  </diagram>
</mxfile>
